<svg xmlns="http://www.w3.org/2000/svg" viewBox="0 0 200 200" class="media-anim media-anim--kettle media-anim--wood-mix" role="img" aria-labelledby="cw-title cw-desc" preserveAspectRatio="xMidYMid meet">
  <title id="cw-title">Charcoal plus Wood layout</title>
  <desc id="cw-desc">Top view of a kettle grill with hot coals filling the bed and three hardwood chunks resting on top releasing thin smoke.</desc>
  <circle class="media-anim__kettle-outer" cx="100" cy="100" r="88" />
  <circle class="media-anim__kettle-inner" cx="100" cy="100" r="78" />
  <g class="media-anim__coal-bed">
    <circle class="media-anim__coal" cx="60"  cy="68"  r="5" />
    <circle class="media-anim__coal" cx="84"  cy="64"  r="5" />
    <circle class="media-anim__coal" cx="108" cy="64"  r="5" />
    <circle class="media-anim__coal" cx="134" cy="68"  r="5" />
    <circle class="media-anim__coal" cx="48"  cy="92"  r="5" />
    <circle class="media-anim__coal" cx="72"  cy="92"  r="5" />
    <circle class="media-anim__coal" cx="100" cy="92"  r="5" />
    <circle class="media-anim__coal" cx="128" cy="92"  r="5" />
    <circle class="media-anim__coal" cx="152" cy="92"  r="5" />
    <circle class="media-anim__coal" cx="50"  cy="116" r="5" />
    <circle class="media-anim__coal" cx="76"  cy="116" r="5" />
    <circle class="media-anim__coal" cx="124" cy="116" r="5" />
    <circle class="media-anim__coal" cx="150" cy="116" r="5" />
    <circle class="media-anim__coal" cx="62"  cy="140" r="5" />
    <circle class="media-anim__coal" cx="92"  cy="140" r="5" />
    <circle class="media-anim__coal" cx="120" cy="140" r="5" />
    <circle class="media-anim__coal" cx="142" cy="140" r="5" />
  </g>
  <g class="media-anim__wood-chunks">
    <rect class="media-anim__wood" x="62"  y="98"  width="22" height="14" rx="2" />
    <rect class="media-anim__wood" x="100" y="106" width="22" height="14" rx="2" />
    <rect class="media-anim__wood" x="130" y="98"  width="22" height="14" rx="2" />
  </g>
  <g class="media-anim__smoke-wisps">
    <path class="media-anim__smoke" d="M73 88 q-4 -8 0 -16 q4 -8 0 -16" />
    <path class="media-anim__smoke" d="M111 96 q-4 -8 0 -16 q4 -8 0 -16" />
    <path class="media-anim__smoke" d="M141 88 q-4 -8 0 -16 q4 -8 0 -16" />
  </g>
  <g class="media-anim__grate-lines">
    <line class="media-anim__grate" x1="32" y1="78"  x2="168" y2="78" />
    <line class="media-anim__grate" x1="22" y1="100" x2="178" y2="100" />
    <line class="media-anim__grate" x1="32" y1="122" x2="168" y2="122" />
  </g>
</svg>
